<svg width="60" height="60" viewBox="0 0 60 60" fill="none" xmlns="http://www.w3.org/2000/svg">
<path d="M30 19.3334C24.1067 19.3334 19.3334 24.1067 19.3334 30.0001C19.3334 35.8934 24.1067 40.6667 30 40.6667C35.8934 40.6667 40.6667 35.8934 40.6667 30.0001C40.6667 24.1067 35.8934 19.3334 30 19.3334ZM53.84 27.3334C52.6134 16.2134 43.7867 7.38675 32.6667 6.16008V3.33341C32.6667 1.86675 31.4667 0.666748 30 0.666748C28.5334 0.666748 27.3334 1.86675 27.3334 3.33341V6.16008C16.2134 7.38675 7.38669 16.2134 6.16002 27.3334H3.33335C1.86669 27.3334 0.666687 28.5334 0.666687 30.0001C0.666687 31.4667 1.86669 32.6667 3.33335 32.6667H6.16002C7.38669 43.7868 16.2134 52.6134 27.3334 53.8401V56.6667C27.3334 58.1334 28.5334 59.3334 30 59.3334C31.4667 59.3334 32.6667 58.1334 32.6667 56.6667V53.8401C43.7867 52.6134 52.6134 43.7868 53.84 32.6667H56.6667C58.1334 32.6667 59.3334 31.4667 59.3334 30.0001C59.3334 28.5334 58.1334 27.3334 56.6667 27.3334H53.84ZM30 48.6667C19.68 48.6667 11.3334 40.3201 11.3334 30.0001C11.3334 19.6801 19.68 11.3334 30 11.3334C40.32 11.3334 48.6667 19.6801 48.6667 30.0001C48.6667 40.3201 40.32 48.6667 30 48.6667Z" fill="#2DA884"/>
</svg>
