<svg width="64" height="64" viewBox="0 0 64 64" fill="none" xmlns="http://www.w3.org/2000/svg">
<path d="M54.0961 22.0464V21.7679V6.95721C54.0961 4.77499 52.3747 3 50.2603 3H48.3657C46.4015 3 44.7621 4.52137 44.5478 6.54469L44.5359 6.6608H39.7495C39.2762 6.6608 38.8228 6.84475 38.4815 7.17152L17.2623 27.5928C16.8479 27.9286 16.5818 28.4411 16.5818 29.016V30.7535C15.0522 31.328 13.9551 32.7942 13.9551 34.5231V46.9195C13.9551 47.9302 14.773 48.7481 15.7837 48.7481H21.1514C22.1621 48.7481 22.98 47.9302 22.98 46.9195V34.5233C22.98 32.7525 21.8278 31.2617 20.239 30.7184V29.8037L40.4871 10.3179H44.1647L43.3179 18.6608C40.5279 19.4888 38.3098 21.3764 37.5122 23.8126L34.4002 33.3011C34.3283 33.4399 34.2892 33.5894 34.2544 33.7461C31.7199 43.2289 28.5158 46.4618 31.264 50.8413C32.5129 52.8346 34.7505 54.2993 37.3648 54.8855C38.0831 58.633 41.3764 61.477 45.3301 61.477C49.8068 61.477 53.4497 57.8341 53.4497 53.3574C53.4497 52.4722 53.2716 51.6349 53.0086 50.8363C53.7148 49.718 54.0961 48.4791 54.0961 47.1931V22.0464ZM19.3229 45.0912H17.6122V34.5233C17.6122 34.3143 17.7819 34.1429 17.9908 34.1429H18.9425C19.1515 34.1429 19.3229 34.3145 19.3229 34.5233V45.0912ZM37.3765 35.9607H50.4391V39.6179H36.1776L37.3765 35.9607ZM48.3657 6.65714H50.2603C50.3334 6.65714 50.4389 6.77326 50.4389 6.95721V18.2344C50.2991 18.2221 50.1636 18.1982 50.0193 18.1982H47.0415L48.0013 8.73879C48.0135 8.65358 48.0516 8.57769 48.0516 8.48919C48.0516 8.45993 48.0364 8.43561 48.0351 8.4069L48.1856 6.9232C48.2033 6.75899 48.3034 6.65714 48.3657 6.65714ZM40.9872 24.9518C41.5748 23.1573 43.8837 21.8553 46.4783 21.8553H50.0193C50.2212 21.8553 50.3621 21.9052 50.4389 21.9464V22.0464V32.3036H38.5761L40.9872 24.9518ZM34.0032 46.2464L34.9778 43.275H50.4389V47.0987C49.039 45.9537 47.2753 45.2376 45.3301 45.2376C41.6234 45.2376 38.5229 47.7497 37.5539 51.1501C35.253 50.4372 33.2624 48.512 34.0032 46.2464ZM45.3301 57.8197C42.8694 57.8197 40.8677 55.8179 40.8677 53.3572C40.8677 50.8965 42.8694 48.8948 45.3301 48.8948C47.7908 48.8948 49.7925 50.8965 49.7925 53.3572C49.7925 55.8179 47.7908 57.8197 45.3301 57.8197ZM15.3265 51.0803L14.3212 52.6071C13.7658 53.4499 13.9997 54.584 14.8427 55.1393C15.6826 55.6928 16.8168 55.465 17.3749 54.6178L18.3802 53.091C18.9356 52.2482 18.7017 51.1141 17.8587 50.5588C17.0176 50.0054 15.8837 50.2375 15.3265 51.0803ZM11.3068 57.191L10.3014 58.7178C9.7461 59.5606 9.97997 60.6947 10.8229 61.2501C11.6628 61.8036 12.7971 61.5757 13.3551 60.7285L14.3605 59.2017C14.9158 58.3589 14.682 57.2248 13.839 56.6695C12.9978 56.1162 11.8621 56.35 11.3068 57.191ZM24.1978 60.709C24.7044 61.5808 25.8223 61.8776 26.6979 61.3696C27.571 60.8608 27.8658 59.7429 27.3585 58.8696L26.9853 58.2285C26.4783 57.3536 25.3568 57.0606 24.4853 57.5679C23.6122 58.0768 23.3174 59.1946 23.8246 60.0679L24.1978 60.709Z" fill="#2DA884"/>
<path d="M24.1748 53.1804L23.2552 51.5999C22.7463 50.725 21.6267 50.432 20.7552 50.9393C19.8821 51.4463 19.5873 52.566 20.0945 53.4393L21.0141 55.0197C21.5206 55.8916 22.6386 56.1884 23.5142 55.6804C24.3873 55.1733 24.6821 54.0537 24.1748 53.1804Z" fill="#2DA884"/>
</svg>
