<svg width="64" height="64" viewBox="0 0 64 64" fill="none" xmlns="http://www.w3.org/2000/svg">
<path d="M38.6677 33.0501H33.7329C33.736 33.0055 33.7589 32.9671 33.7589 32.9216V29.3394C33.7589 29.3291 33.753 29.3205 33.753 29.3109H35.5357C36.4589 29.3109 37.2357 28.6233 37.35 27.709L39.9107 7.16613C40.3456 3.36599 36.0658 1 31.9303 1C27.797 1 23.519 3.38482 23.9517 7.16613L23.9535 7.17143C23.9539 7.17637 23.9531 7.18075 23.9535 7.18569L26.5124 27.7088C26.6267 28.6231 27.4035 29.3107 28.3267 29.3107H30.1076C30.1076 29.3206 30.1017 29.329 30.1017 29.3392V32.9214C30.1017 32.9669 30.1246 33.0053 30.1277 33.0499H25.1946C22.8821 33.0499 21 34.9088 21 37.1946V53.416C21 53.9946 21.2732 54.5375 21.7356 54.8822L30.8373 61.6607C31.1623 61.9017 31.5463 62.0231 31.9303 62.0231C32.3143 62.0231 32.6981 61.9017 33.0232 61.6607L42.1268 54.8822C42.5892 54.5375 42.8624 53.9946 42.8624 53.416V37.1946C42.8622 34.909 40.9801 33.0501 38.6677 33.0501ZM27.5838 6.75195C27.468 5.72594 29.7025 4.65733 31.9303 4.65733C33.591 4.65733 36.4099 5.54126 36.2781 6.74976L33.9214 25.6537H29.941L27.5838 6.75195ZM39.2051 52.4984L31.9301 57.9145L24.657 52.4984V37.1949C24.657 36.9252 24.898 36.7074 25.1944 36.7074H38.6677C38.9641 36.7074 39.2051 36.9252 39.2051 37.1949V52.4984Z" fill="#2DA884"/>
</svg>
