<svg width="64" height="64" viewBox="0 0 64 64" fill="none" xmlns="http://www.w3.org/2000/svg">
<path d="M54.048 21.7376V21.4591V6.64837C54.048 4.46616 52.3266 2.69116 50.2122 2.69116H48.3176C46.3534 2.69116 44.7141 4.21253 44.4998 6.23585L44.4879 6.35196H39.7014C39.2282 6.35196 38.7747 6.53592 38.4335 6.86268L17.2142 27.284C16.7998 27.6197 16.5338 28.1323 16.5338 28.7072V30.4447C15.0042 31.0192 13.907 32.4854 13.907 34.2143V46.6107C13.907 47.6214 14.7249 48.4393 15.7356 48.4393H21.1034C22.114 48.4393 22.9319 47.6214 22.9319 46.6107V34.2145C22.9319 32.4437 21.7798 30.9528 20.1909 30.4096V29.4949L40.439 10.0091H44.1167L43.2699 18.352C40.4798 19.1799 38.2618 21.0676 37.4641 23.5038L34.3521 32.9922C34.2802 33.131 34.2411 33.2806 34.2064 33.4373C31.6718 42.9201 28.4678 46.153 31.2159 50.5324C32.4648 52.5258 34.7025 53.9905 37.3168 54.5767C38.035 58.3242 41.3283 61.1681 45.282 61.1681C49.7587 61.1681 53.4016 57.5253 53.4016 53.0486C53.4016 52.1633 53.2235 51.326 52.9606 50.5275C53.6667 49.4091 54.048 48.1703 54.048 46.8843V21.7376ZM19.2748 44.7823H17.5642V34.2145C17.5642 34.0054 17.7339 33.8341 17.9427 33.8341H18.8945C19.1035 33.8341 19.2748 34.0056 19.2748 34.2145V44.7823ZM37.3285 35.6519H50.391V39.309H36.1295L37.3285 35.6519ZM48.3176 6.3483H50.2122C50.2854 6.3483 50.3909 6.46442 50.3909 6.64837V17.9255C50.251 17.9133 50.1155 17.8893 49.9712 17.8893H46.9934L47.9532 8.42995C47.9654 8.34474 48.0035 8.26885 48.0035 8.18035C48.0035 8.15109 47.9883 8.12677 47.987 8.09806L48.1375 6.61436C48.1553 6.45016 48.2553 6.3483 48.3176 6.3483ZM40.9392 24.643C41.5267 22.8484 43.8356 21.5465 46.4302 21.5465H49.9712C50.1731 21.5465 50.3141 21.5964 50.3909 21.6375V21.7376V31.9948H38.528L40.9392 24.643ZM33.9551 45.9376L34.9297 42.9662H50.3909V46.7899C48.9909 45.6449 47.2272 44.9288 45.282 44.9288C41.5753 44.9288 38.4748 47.4409 37.5058 50.8413C35.2049 50.1283 33.2144 48.2032 33.9551 45.9376ZM45.282 57.5108C42.8213 57.5108 40.8196 55.5091 40.8196 53.0484C40.8196 50.5877 42.8213 48.5859 45.282 48.5859C47.7427 48.5859 49.7445 50.5877 49.7445 53.0484C49.7445 55.5091 47.7427 57.5108 45.282 57.5108ZM15.2785 50.7714L14.2731 52.2983C13.7178 53.1411 13.9516 54.2752 14.7946 54.8305C15.6345 55.384 16.7687 55.1562 17.3268 54.309L18.3322 52.7821C18.8875 51.9393 18.6536 50.8053 17.8107 50.2499C16.9695 49.6966 15.8356 49.9286 15.2785 50.7714ZM11.2587 56.8822L10.2534 58.409C9.69802 59.2518 9.93189 60.3859 10.7749 60.9412C11.6147 61.4947 12.749 61.2669 13.3071 60.4197L14.3124 58.8929C14.8678 58.0501 14.6339 56.916 13.7909 56.3606C12.9498 55.8073 11.814 56.0412 11.2587 56.8822ZM24.1498 60.4001C24.6563 61.272 25.7743 61.5688 26.6498 61.0608C27.5229 60.5519 27.8177 59.4341 27.3105 58.5608L26.9372 57.9197C26.4302 57.0447 25.3087 56.7518 24.4372 57.259C23.5641 57.7679 23.2693 58.8857 23.7766 59.759L24.1498 60.4001Z" fill="#2DA884"/>
<path d="M24.1748 53.1804L23.2552 51.5999C22.7463 50.725 21.6267 50.432 20.7552 50.9393C19.8821 51.4463 19.5873 52.566 20.0945 53.4393L21.0141 55.0197C21.5206 55.8916 22.6386 56.1884 23.5142 55.6804C24.3873 55.1733 24.6821 54.0537 24.1748 53.1804Z" fill="#2DA884"/>
</svg>
