<svg width="54" height="53" viewBox="0 0 54 53" fill="none" xmlns="http://www.w3.org/2000/svg">
<path d="M29.6666 4.31999V4.37332C29.6666 6.15999 30.8666 7.65332 32.5466 8.18666C40.1466 10.56 45.6666 17.6267 45.6666 26C45.6666 27.3867 45.5066 28.6933 45.2133 29.9733C44.84 31.68 45.5333 33.44 47.0533 34.3467L47.08 34.3733C49.3733 35.7067 52.36 34.5067 52.9733 31.9467C53.4266 30.0267 53.6666 28.0267 53.6666 26C53.6666 14 45.72 3.81332 34.7866 0.47999C32.2533 -0.293344 29.6666 1.65332 29.6666 4.31999ZM24.1733 44.4533C16.2 43.3067 9.71997 36.8267 8.54664 28.88C7.10664 19.28 12.9733 10.8267 21.4266 8.18666C23.1333 7.67999 24.3333 6.15999 24.3333 4.37332V4.31999C24.3333 1.65332 21.7466 -0.293344 19.1866 0.47999C7.15997 4.15999 -1.24003 16.1067 0.573306 29.7067C2.14664 41.3867 11.5866 50.8267 23.2666 52.4C31.64 53.52 39.3733 50.7733 44.9466 45.6533C46.92 43.84 46.5733 40.6133 44.2533 39.28C42.7066 38.3733 40.7866 38.6667 39.4533 39.8667C35.5333 43.44 30.0933 45.3333 24.1733 44.4533Z" fill="#2DA884"/>
</svg>
